<?xml version="1.0" encoding="UTF-8"?>
<svg version="1.1" xmlns="http://www.w3.org/2000/svg" width="2700" height="1600">
<path d="M0 0 C891 0 1782 0 2700 0 C2700 528 2700 1056 2700 1600 C1809 1600 918 1600 0 1600 C0 1072 0 544 0 0 Z " fill="#FEFEFE" transform="translate(0,0)"/>
<path d="M0 0 C12.81941136 0.61044816 24.6468203 1.21375122 37.14111328 3.41918945 C39.39515685 3.81604893 41.65204562 4.19150285 43.91015625 4.56445312 C53.44946044 6.17439715 62.6980293 8.31555188 72 11 C73.02625488 11.29382568 74.05250977 11.58765137 75.10986328 11.89038086 C112.55642637 22.87102202 148.99257032 40.85763627 179 66 C180.09356045 66.90127171 181.18731223 67.80231131 182.28125 68.703125 C195.3754197 79.56668083 208.29369415 91.07436581 219.296875 104.078125 C221.43276608 106.48835071 223.70782185 108.73900795 226 111 C228.022342 108.83472555 230.04288878 106.66781928 232.0625 104.5 C232.62388672 103.89929688 233.18527344 103.29859375 233.76367188 102.6796875 C236.72499108 99.49838458 239.62838986 96.28499761 242.4609375 92.98828125 C245.95006452 88.98226449 249.67653983 85.30624323 253.5625 81.6875 C254.25722412 81.03942383 254.95194824 80.39134766 255.66772461 79.72363281 C262.15432081 73.74282129 268.94384206 68.28717717 276 63 C277.17972236 62.10030613 278.35940944 61.20056599 279.5390625 60.30078125 C311.07604416 36.47662522 346.89802 19.37051356 385 9 C385.72203613 8.79826172 386.44407227 8.59652344 387.18798828 8.38867188 C396.58175618 5.80070798 406.11985521 4.25009707 415.75 2.8125 C416.8433667 2.64532471 417.9367334 2.47814941 419.06323242 2.3059082 C429.78539422 0.79309901 440.02991433 0.52238503 451 0 C451 33.66 451 67.32 451 102 C443.74 103.65 436.48 105.3 429 107 C407.56272934 112.05031795 386.26215617 118.35246766 366.86376953 128.98193359 C364.90935524 130.04951384 362.93834783 131.08147312 360.96484375 132.11328125 C351.49602827 137.1518785 343.1716537 143.06915013 335 150 C333.67742188 151.10988281 333.67742188 151.10988281 332.328125 152.2421875 C288.26185166 190.55458439 279.98868453 242.11705252 275.32543945 297.69628906 C274.98596473 301.14247957 274.48972384 304.5719331 274 308 C241.99 308 209.98 308 177 308 C174 279 174 279 173 268.375 C168.75083647 226.76719074 156.67440109 191.03603297 127.34130859 160.40869141 C126.21799589 159.22894727 125.11606581 158.02889282 124.01953125 156.82421875 C113.32934663 145.42607489 99.74013199 137.17651663 86 130 C84.98550781 129.45859375 83.97101562 128.9171875 82.92578125 128.359375 C74.52642286 124.00500094 65.8212998 120.39919623 57 117 C56.34950684 116.74750488 55.69901367 116.49500977 55.02880859 116.23486328 C37.41191415 109.53963836 18.44314757 105.68862951 0 102 C0 68.34 0 34.68 0 0 Z " fill="#7F3E98" transform="translate(2082,346)"/>
<path d="M0 0 C24.95266895 1.18822233 24.95266895 1.18822233 36.3125 3 C37.30242447 3.15556366 37.30242447 3.15556366 38.31234741 3.31427002 C95.6532263 12.46875811 149.98661681 39.16137358 193 78 C193.61327148 78.55155762 194.22654297 79.10311523 194.85839844 79.67138672 C205.67676469 89.44984372 215.72034801 99.74381564 225 111 C230.10292993 105.97633889 234.96675247 100.73476458 239.85351562 95.50195312 C246.91880757 87.96338803 254.08713629 80.6522971 262 74 C262.7719873 73.34136963 262.7719873 73.34136963 263.55957031 72.66943359 C315.01680994 28.92642159 382.83609513 0 451 0 C451 33.66 451 67.32 451 102 C439.45 104.64 427.9 107.28 416 110 C410.05712828 111.71160294 404.30813183 113.40096801 398.5 115.4375 C397.83039246 115.66744659 397.16078491 115.89739319 396.47088623 116.13430786 C353.8067733 130.79224321 315.51256136 158.26061687 295.21142578 199.48413086 C279.54564763 232.43672505 277.43795204 271.47449555 274 307 C241.99 307 209.98 307 177 307 C175.02 289.18 175.02 289.18 173 271 C168.86541321 236.13165144 162.62724954 202.82639103 140 175 C139.5678418 174.46632813 139.13568359 173.93265625 138.69042969 173.3828125 C103.3853575 130.00873679 53.21567934 113.20330091 0 102 C0 68.34 0 34.68 0 0 Z " fill="#008FD5" transform="translate(664,346)"/>
<path d="M0 0 C0 33.66 0 67.32 0 102 C-7.92 103.65 -15.84 105.3 -24 107 C-30.0509165 108.5641825 -36.03272331 110.16763957 -42 112 C-43.23049072 112.37463379 -43.23049072 112.37463379 -44.48583984 112.75683594 C-76.82250758 122.72441094 -105.12826951 137.87546752 -129 162 C-129.48412354 162.48879639 -129.96824707 162.97759277 -130.46704102 163.48120117 C-168.66313345 202.38786257 -172.50184504 255.27121794 -177 307 C-209.01 307 -241.02 307 -274 307 C-275.2209736 303.3370792 -275.5064917 299.73401494 -275.8671875 295.9140625 C-276.03035543 294.25445996 -276.19369199 292.594874 -276.35717773 290.93530273 C-276.48369217 289.63385818 -276.48369217 289.63385818 -276.61276245 288.30612183 C-280.57037565 247.84340706 -285.12929436 206.48798264 -312 174 C-312.48484863 173.40977051 -312.96969727 172.81954102 -313.46923828 172.21142578 C-349.10221801 129.08963148 -397.56583392 114.21352368 -451 102 C-451 68.67 -451 35.34 -451 1 C-429.96065267 1 -429.96065267 1 -421.25 2.1875 C-419.75400269 2.38279297 -419.75400269 2.38279297 -418.2277832 2.58203125 C-403.93690823 4.56359116 -389.84440491 7.96684672 -376 12 C-375.23526367 12.22099365 -374.47052734 12.4419873 -373.68261719 12.66967773 C-348.64576236 20.03059504 -323.97686346 30.91702785 -302 45 C-301.34999023 45.41491699 -300.69998047 45.82983398 -300.03027344 46.25732422 C-278.81291246 59.89705627 -259.96316631 75.98348662 -242.125 93.75 C-241.31611328 94.55421387 -240.50722656 95.35842773 -239.67382812 96.18701172 C-227 108.89502237 -227 108.89502237 -227 112 C-223.67409039 108.72363839 -220.46049555 105.36850519 -217.29418945 101.93798828 C-206.46329555 90.2077011 -195.57730912 78.87728896 -183 69 C-181.89351338 68.08352291 -180.78947691 67.16408217 -179.6875 66.2421875 C-165.00277587 54.05394707 -148.83874911 43.9385549 -132 35 C-131.38833984 34.67225586 -130.77667969 34.34451172 -130.14648438 34.00683594 C-90.51541986 12.93583173 -45.03783966 0 0 0 Z " fill="#FBB040" transform="translate(1588,346)"/>
<path d="M0 0 C24.39454146 1.16164483 24.39454146 1.16164483 34.6875 2.8125 C35.82614502 2.98918213 36.96479004 3.16586426 38.13793945 3.34790039 C52.48619088 5.63368682 66.32388521 8.80151129 80.11035156 13.38085938 C81.9073327 13.96963769 83.71521489 14.52483294 85.5234375 15.078125 C136.60638048 31.09087975 189.36495949 64.92269492 222.125 107.98046875 C222.74375 108.64691406 223.3625 109.31335938 224 110 C227.22260119 110.34566195 227.22260119 110.34566195 229.53125 107.578125 C230.52888844 106.47598816 231.51793697 105.36603776 232.5 104.25 C233.02754883 103.66524902 233.55509766 103.08049805 234.09863281 102.47802734 C235.73957364 100.65829745 237.37026053 98.82976191 239 97 C250.04649436 84.67119534 250.04649436 84.67119534 256.01953125 79.67578125 C257.38238168 78.52260011 258.71205584 77.32942314 260.01171875 76.10546875 C302.73564667 35.91664301 361.27259626 10.61614987 418.875 2.3125 C419.67478271 2.19302002 420.47456543 2.07354004 421.29858398 1.95043945 C431.20660617 0.6174654 440.91992493 0.48000357 451 0 C451 33.66 451 67.32 451 102 C440.77 104.31 430.54 106.62 420 109 C371.92073097 122.67392055 325.69510154 145.82282428 299.92480469 190.87988281 C282.98681907 221.95631626 278.94131725 256.77252286 275.95068359 291.55419922 C275.83934082 292.84342285 275.72799805 294.13264648 275.61328125 295.4609375 C275.51829346 296.60353027 275.42330566 297.74612305 275.32543945 298.92333984 C275 302 275 302 274 307 C241.99 307 209.98 307 177 307 C175.68 293.47 174.36 279.94 173 266 C171.36344097 255.12033882 171.36344097 255.12033882 169.43945312 244.31298828 C169.03813371 242.20071041 168.6754386 240.08654629 168.328125 237.96484375 C162.98027475 207.47557554 148.53904576 182.53754629 127.36376953 160.43554688 C126.17968529 159.18914241 125.02279807 157.91700924 123.87109375 156.640625 C111.16125453 143.01050388 93.94523966 132.99902669 77.125 125.375 C76.12597656 124.9109375 75.12695312 124.446875 74.09765625 123.96875 C67.19842285 120.81735823 60.22802264 118.28534061 53 116 C51.58233891 115.52378348 50.16545261 115.04524118 48.75 114.5625 C48.01910156 114.32273437 47.28820312 114.08296875 46.53515625 113.8359375 C44.6416904 113.21158975 42.75462414 112.56777217 40.87109375 111.9140625 C27.30740162 107.39762631 14.29243833 105.06266536 0 102 C0 68.34 0 34.68 0 0 Z " fill="#ED1B24" transform="translate(191,346)"/>
<path d="M0 0 C0 33.66 0 67.32 0 102 C-11.55 104.64 -23.1 107.28 -35 110 C-60.47548825 117.70428072 -85.53053048 126.88395665 -107 143 C-107.88945313 143.66257812 -108.77890625 144.32515625 -109.6953125 145.0078125 C-112.19296072 146.94172821 -114.60467207 148.94085844 -117 151 C-117.94230469 151.80824219 -118.88460938 152.61648438 -119.85546875 153.44921875 C-166.08337313 193.99564963 -170.696383 248.66021298 -176 307 C-208.34 307 -240.68 307 -274 307 C-275.32 293.8 -276.64 280.6 -278 267 C-279.71744307 253.47513579 -281.91146954 240.266716 -285 227 C-285.36931641 225.41251953 -285.36931641 225.41251953 -285.74609375 223.79296875 C-287.49189087 216.8985496 -290.05477196 210.46569593 -293 204 C-293.27972656 203.38463379 -293.55945312 202.76926758 -293.84765625 202.13525391 C-300.40984996 187.8852088 -308.75436125 175.97245705 -319.5546875 164.62109375 C-322 162 -322 162 -324.11328125 159.35546875 C-330.75283943 151.06633089 -340.39396129 145.08345703 -349 139 C-349.90621094 138.35804688 -350.81242187 137.71609375 -351.74609375 137.0546875 C-360.27796373 131.33128018 -369.65037928 127.18983207 -379 123 C-379.71994141 122.67467285 -380.43988281 122.3493457 -381.18164062 122.01416016 C-392.80500533 116.81523719 -404.71314313 113.27451477 -417 110 C-418.68891838 109.54079208 -420.37772296 109.0811654 -422.06640625 108.62109375 C-423.68979468 108.18374544 -425.31348055 107.74749928 -426.9375 107.3125 C-427.64503418 107.12220215 -428.35256836 106.9319043 -429.08154297 106.73583984 C-436.0204916 104.91414745 -442.95896787 103.5087926 -450 102 C-450 68.67 -450 35.34 -450 1 C-423.10161035 1 -396.46725402 4.31345304 -370.96240234 13.31396484 C-368.75052355 14.08721433 -366.52669769 14.81895471 -364.30078125 15.55078125 C-335.93592694 25.00573269 -309.38329903 38.73863595 -285 56 C-284.38560059 56.43441406 -283.77120117 56.86882812 -283.13818359 57.31640625 C-275.05241295 63.08957504 -267.49459642 69.49056249 -260 76 C-259.18144531 76.70511719 -258.36289063 77.41023438 -257.51953125 78.13671875 C-246.73068895 87.62439414 -235.98239147 97.727685 -227.3828125 109.27734375 C-226.09600744 111.12597675 -226.09600744 111.12597675 -224 112 C-223.77183594 111.45472656 -223.54367187 110.90945313 -223.30859375 110.34765625 C-221.62245131 107.32266638 -219.41886257 104.94391674 -217.0625 102.4375 C-216.29208374 101.61233887 -216.29208374 101.61233887 -215.50610352 100.77050781 C-192.69771447 76.55166516 -192.69771447 76.55166516 -180 67 C-178.44893034 65.80636427 -176.8981808 64.6123125 -175.34765625 63.41796875 C-166.17015915 56.39552908 -157.0008084 49.80264034 -147 44 C-145.72114714 43.21991656 -144.44389114 42.43721117 -143.16796875 41.65234375 C-114.69886125 24.28412053 -83.60695431 12.62513429 -51 6 C-50.1637207 5.82581543 -49.32744141 5.65163086 -48.46582031 5.47216797 C-32.53388074 2.18996226 -16.29621362 0 0 0 Z " fill="#0BA14A" transform="translate(2060,346)"/>
<path d="M0 0 C24.42 0 48.84 0 74 0 C74.33 59.4 74.66 118.8 75 180 C78.96 174.72 82.92 169.44 87 164 C89.70351587 160.4336079 92.40948426 156.86968528 95.125 153.3125 C95.80530273 152.42022705 96.48560547 151.5279541 97.18652344 150.60864258 C100.861442 145.79153139 104.54838962 140.98412052 108.25 136.1875 C112.3948405 130.81172533 116.46887446 125.38544589 120.53344727 119.94897461 C129.84371939 107.51081058 129.84371939 107.51081058 133.60198975 102.93566895 C135.13843619 100.9099044 135.13843619 100.9099044 136.50396729 98.07897949 C141.26029372 89.9108187 141.26029372 89.9108187 146.03035927 88.32500458 C152.16335882 87.28135304 158.37518613 87.62459622 164.56640625 87.828125 C166.5713135 87.85053208 168.57628687 87.86760156 170.58128357 87.87957764 C175.83558476 87.92520063 181.08584707 88.04288584 186.33856201 88.17602539 C191.70757406 88.29921962 197.07724487 88.35368014 202.44726562 88.4140625 C212.96660969 88.54241054 223.48296787 88.74696121 234 89 C229.6439341 95.57428409 229.6439341 95.57428409 227.15234375 98.59375 C226.63526855 99.22434326 226.11819336 99.85493652 225.58544922 100.50463867 C225.04162598 101.16310791 224.49780273 101.82157715 223.9375 102.5 C219.68760723 107.68281066 215.48912714 112.89630651 211.375 118.1875 C207.41179874 123.27393085 203.3100814 128.21635958 199.11791992 133.11499023 C195.40191135 137.47674653 191.8596838 141.95679796 188.3425293 146.47949219 C184.57860681 151.30295321 180.71122421 156.0350468 176.8125 160.75 C171.81837259 166.7899376 166.87591134 172.86402168 162 179 C159.83488519 181.70957542 157.66736007 184.41722041 155.5 187.125 C154.44787849 188.44007363 153.39579199 189.75517526 152.34375 191.0703125 C151.5703125 192.03710938 150.796875 193.00390625 150 194 C151.60384406 198.849049 154.3535902 202.5924707 157.3125 206.6875 C157.84375488 207.43153076 158.37500977 208.17556152 158.92236328 208.94213867 C163.25482731 214.99934204 167.62981582 221.02628066 172.0012207 227.05541992 C176.66204432 233.49712442 181.21823569 240.00900721 185.76464844 246.53173828 C190.19359393 252.87513911 194.70183484 259.15696176 199.24389648 265.41967773 C204.39505229 272.52810024 209.45754689 279.69728295 214.50732422 286.87792969 C216.536777 289.76311183 218.5689454 292.64637161 220.60229492 295.52880859 C221.60700812 296.9531591 222.61109085 298.37795456 223.61450195 299.80322266 C226.04728666 303.25441052 228.49525616 306.69287004 230.9765625 310.109375 C231.44433105 310.75559814 231.91209961 311.40182129 232.39404297 312.06762695 C233.27702476 313.28526425 234.16388187 314.50010374 235.05517578 315.71166992 C238 319.77772224 238 319.77772224 238 322 C226.25639468 322.23190519 214.51333559 322.40948453 202.76790524 322.51812172 C197.31360327 322.57026907 191.86086983 322.64096939 186.4074707 322.75439453 C181.14239211 322.86321492 175.87881981 322.92287466 170.61270332 322.94877243 C168.60587407 322.96722182 166.59912553 323.00325293 164.59293938 323.05730057 C148.86681954 323.46404123 148.86681954 323.46404123 144.26170349 319.85250854 C142.43392764 317.28617468 141.1968607 314.90486368 140 312 C139.1807837 310.61003043 138.34465495 309.22965327 137.48046875 307.8671875 C136.71257053 306.53851826 135.94830679 305.20774253 135.1875 303.875 C130.77647285 296.27137335 126.17983234 288.80629869 121.49121094 281.37158203 C119.77116461 278.63606631 118.06087999 275.89457611 116.3515625 273.15234375 C109.64047235 262.3871282 102.91110701 251.63823517 96 241 C92.26106246 244.63733597 88.84229635 248.43517034 85.5 252.4375 C85.03980469 252.98470703 84.57960938 253.53191406 84.10546875 254.09570312 C82.73396464 255.72798618 81.36598206 257.36309223 80 259 C79.1335083 259.78785889 78.2670166 260.57571777 77.37426758 261.38745117 C73.45647214 266.1302498 74.27354349 272.20945014 74.29296875 278.0546875 C74.27834595 279.1691626 74.26372314 280.2836377 74.24865723 281.43188477 C74.20142737 285.57937103 74.19699481 289.72725569 74.1875 293.875 C74.125625 303.15625 74.06375 312.4375 74 322 C49.58 322 25.16 322 0 322 C0 215.74 0 109.48 0 0 Z " fill="#231F20" transform="translate(1425,816)"/>
<path d="M0 0 C26.22232374 23.37207116 39.0517768 55.35837739 42 90 C42 99.9 42 109.8 42 120 C-12.45 120 -66.9 120 -123 120 C-118.61600131 130.92152989 -118.61600131 130.92152989 -112 140 C-111.54625 140.50789063 -111.0925 141.01578125 -110.625 141.5390625 C-106.67585142 145.38536867 -101.93168098 147.77236394 -97.0625 150.25 C-96.39428223 150.59160156 -95.72606445 150.93320313 -95.03759766 151.28515625 C-77.68895496 159.77968796 -54.974047 157.88241538 -37 152 C-35.84628906 151.62617187 -34.69257812 151.25234375 -33.50390625 150.8671875 C-26.73988736 148.46114073 -20.67622048 145.29440358 -14.55859375 141.55078125 C-12.40632205 140.24627458 -10.25610255 139.10724736 -8 138 C-7.46169052 138.81686028 -7.46169052 138.81686028 -6.9125061 139.65022278 C-3.1816752 145.31155593 0.5492667 150.97281593 4.28027344 156.6340332 C5.67320565 158.74762114 7.06610945 160.86122782 8.45898438 162.97485352 C10.45956085 166.01062858 12.46023911 169.04633654 14.4609375 172.08203125 C15.08495453 173.02899368 15.70897156 173.97595612 16.35189819 174.95161438 C17.22257431 176.27264412 17.22257431 176.27264412 18.11083984 177.62036133 C18.62158051 178.39535477 19.13232117 179.17034821 19.65853882 179.96882629 C20.76802486 181.6487548 21.88325761 183.32488642 23 185 C23 185.99 23 186.98 23 188 C5.76511946 202.96247334 -17.92081999 210.97489481 -40 215 C-40.90733887 215.17877686 -41.81467773 215.35755371 -42.74951172 215.54174805 C-51.88650261 217.17465241 -60.88514504 217.33908017 -70.13671875 217.31567383 C-72.73220193 217.31252162 -75.32653231 217.33603287 -77.921875 217.36132812 C-91.99003916 217.41552799 -105.70527778 216.01625741 -119.0625 211.3125 C-119.79799072 211.05976318 -120.53348145 210.80702637 -121.29125977 210.54663086 C-138.80969367 204.30304976 -153.65961791 194.85254814 -167 182 C-167.72058594 181.35417969 -168.44117188 180.70835937 -169.18359375 180.04296875 C-182.22334518 168.00022045 -189.88987422 151.02553236 -195.3125 134.4375 C-195.55516602 133.70692383 -195.79783203 132.97634766 -196.04785156 132.22363281 C-199.71557085 120.39043947 -200.32614617 108.31029781 -200.25 96 C-200.25773437 94.74960937 -200.26546875 93.49921875 -200.2734375 92.2109375 C-200.21635254 64.63890165 -191.48850389 38.42901833 -174 17 C-173.57493164 16.47857422 -173.14986328 15.95714844 -172.71191406 15.41992188 C-156.39801278 -4.1960407 -134.46614506 -16.48517765 -110 -23 C-108.86304688 -23.34417969 -107.72609375 -23.68835938 -106.5546875 -24.04296875 C-70.61284857 -33.71961769 -28.22175146 -24.06275651 0 0 Z " fill="#232021" transform="translate(1869,926)"/>
<path d="M0 0 C24.75 0 49.5 0 75 0 C75.02578125 10.56773437 75.0515625 21.13546875 75.078125 32.0234375 C75.10329462 38.72267473 75.12946586 45.4218833 75.16015625 52.12109375 C75.20867151 62.75178827 75.25312491 73.38238748 75.27099609 84.01318359 C75.28403172 91.75630285 75.31104498 99.49922785 75.35461307 107.24223769 C75.37718509 111.33944991 75.39291325 115.43642294 75.39188385 119.53370285 C75.3911347 123.39652662 75.40918666 127.25882248 75.44116783 131.12150955 C75.44963085 132.53310994 75.45144138 133.94476979 75.44580269 135.35638428 C75.40626743 146.78284485 77.06126971 155.82998887 85.08203125 164.3125 C94.14038786 172.28237791 106.38352176 172.79415848 117.85009766 172.19091797 C128.71167975 171.22637593 140.44116987 166.57847264 148.2109375 158.78125 C150 157 150 157 152 157 C152.28875 156.38125 152.5775 155.7625 152.875 155.125 C154 153 154 153 156 151 C156.31568243 148.27326628 156.31568243 148.27326628 156.2784729 145.02694702 C156.28963638 143.75366043 156.30079987 142.48037384 156.31230164 141.16850281 C156.31466683 139.74954253 156.31684244 138.33058193 156.31884766 136.91162109 C156.32814158 135.4236547 156.33830944 133.93569355 156.34928894 132.44773865 C156.37666356 128.40047664 156.39176034 124.35324957 156.40471697 120.30591917 C156.42031499 116.0791188 156.44711574 111.85239015 156.4727478 107.62564087 C156.51959473 99.61818417 156.55631014 91.61071406 156.58942068 83.60319006 C156.63473509 72.78510006 156.69562886 61.96709861 156.75566864 51.14908218 C156.84988155 34.09943245 156.92321749 17.04975777 157 0 C181.42 0 205.84 0 231 0 C231 76.89 231 153.78 231 233 C206.58 233 182.16 233 157 233 C156.67 224.42 156.34 215.84 156 207 C153.69 209.31 151.38 211.62 149 214 C128.236066 231.08001022 103.90562436 238.43220486 77.1875 238.3125 C75.86814453 238.30686035 74.54878906 238.3012207 73.18945312 238.29541016 C52.36553877 238.03601014 34.68483206 233.21306498 19 219 C3.09857789 202.42958602 -0.32761855 181.54735506 -0.22705078 159.50317383 C-0.22648569 157.75773119 -0.22680514 156.01228807 -0.22793579 154.2668457 C-0.22850647 149.55892723 -0.2167985 144.85111195 -0.20278788 140.14321733 C-0.19023283 135.21183189 -0.18910627 130.28044375 -0.18673706 125.3490448 C-0.18053627 116.02436428 -0.16414451 106.699731 -0.14403808 97.37507123 C-0.12163535 86.75350128 -0.11067467 76.131929 -0.10064721 65.51034129 C-0.07977697 43.67352868 -0.04311833 21.83678079 0 0 Z " fill="#231F20" transform="translate(2070,905)"/>
<path d="M0 0 C24.42 0 48.84 0 74 0 C74.02578125 10.32796875 74.0515625 20.6559375 74.078125 31.296875 C74.1032993 37.85027924 74.12947464 44.40365431 74.16015625 50.95703125 C74.20864128 61.35269959 74.25310651 71.74827093 74.27099609 82.14404297 C74.28404605 89.7165184 74.31109551 97.28879573 74.35461307 104.86115956 C74.37715311 108.86677475 74.39291519 112.87214628 74.39188385 116.87783051 C74.39113279 120.65694524 74.40926019 124.43552292 74.44116783 128.21449852 C74.45359651 130.24465077 74.44663774 132.27489358 74.43885803 134.30506897 C74.55690571 144.79695674 76.23612935 156.23612935 84 164 C93.53889053 172.11583926 106.83748456 173.11392251 118.86279297 172.25439453 C129.31000426 171.01084939 138.66575456 166.23607619 147 160 C147.80193 159.4021296 148.60386 158.8042592 149.4300909 158.18827152 C154.39766786 153.92318321 156.57861331 150.79060865 157.12025452 144.18516541 C157.16399426 141.48557147 157.16006786 138.81382048 157.11352539 136.11694336 C157.12086059 134.62792613 157.13214888 133.13892397 157.14706421 131.64996338 C157.17623044 127.6313041 157.15048423 123.61469431 157.11447453 119.5961616 C157.08623655 115.38804136 157.10905157 111.18019632 157.12632751 106.97206116 C157.15130415 99.01410043 157.13072215 91.05694349 157.09355396 83.09905678 C157.04594667 72.33815451 157.06915562 61.57741627 157.0882864 50.81646442 C157.11654341 33.87719782 157.05056609 16.93963941 157 0 C181.42 0 205.84 0 231 0 C231 76.89 231 153.78 231 233 C206.58 233 182.16 233 157 233 C156.67 224.09 156.34 215.18 156 206 C154.618125 207.464375 153.23625 208.92875 151.8125 210.4375 C130.22627296 231.81268851 102.43990174 238.28679784 72.97387695 238.24438477 C53.8842433 238.06005444 35.44568603 234.27197404 21 221 C20.401875 220.50371094 19.80375 220.00742188 19.1875 219.49609375 C8.04448262 209.5718439 2.36168745 193.37979826 0 179 C-0.08890417 176.53567573 -0.12198257 174.06912201 -0.12025452 171.60319519 C-0.12110894 170.86796719 -0.12196337 170.1327392 -0.12284368 169.37523156 C-0.12448791 166.91704022 -0.11899444 164.45891745 -0.11352539 162.00073242 C-0.11324326 160.23647056 -0.11340175 158.47220857 -0.1139679 156.70794678 C-0.11425488 151.92119515 -0.1083741 147.13446857 -0.10139394 142.34772277 C-0.09514397 137.34422797 -0.0945553 132.3407326 -0.09336853 127.3372345 C-0.09026007 117.86362422 -0.0820532 108.39002548 -0.07201904 98.91642028 C-0.06084286 88.13053771 -0.05534365 77.34465459 -0.05032361 66.55876768 C-0.0398702 44.37250391 -0.02153073 22.18625597 0 0 Z " fill="#231F20" transform="translate(355,905)"/>
<path d="M0 0 C0.77279297 0.11827148 1.54558594 0.23654297 2.34179688 0.35839844 C26.38843326 4.16594401 50.85887148 13.7414735 70 29 C65.00748131 39.27214708 59.71123431 49.37437135 54.3125 59.4375 C53.98925751 60.0404187 53.66601501 60.6433374 53.33297729 61.26452637 C49.6086963 68.20639468 45.85330447 75.12881716 42 82 C41.29496338 81.43236938 41.29496338 81.43236938 40.57568359 80.85327148 C30.79975006 73.07434533 19.6553061 67.37702862 8 63 C7.27941406 62.71511719 6.55882813 62.43023438 5.81640625 62.13671875 C-9.93816796 56.32926701 -29.03627671 54.10416479 -45 60 C-47.32411607 61.16436829 -48.96663062 62.33159435 -51 64 C-51.54140625 64.43957031 -52.0828125 64.87914062 -52.640625 65.33203125 C-54.44580863 67.54701232 -54.30996225 68.87086832 -54.1875 71.6875 C-54.16042969 72.49574219 -54.13335938 73.30398438 -54.10546875 74.13671875 C-54.05326172 75.05904297 -54.05326172 75.05904297 -54 76 C-45.42565392 81.29055396 -36.82532591 83.41180428 -26.9375 85 C-24.88661293 85.34442254 -22.8358318 85.68947652 -20.78515625 86.03515625 C-19.79273926 86.20031738 -18.80032227 86.36547852 -17.77783203 86.53564453 C-11.49748359 87.58549712 -5.2387519 88.72425245 1 90 C1.79583496 90.16048828 2.59166992 90.32097656 3.41162109 90.48632812 C28.31395734 95.617317 54.84212055 105.2052972 69.46875 127.38671875 C78.7038071 143.14756875 81.95863809 162.93487476 78.31640625 180.98828125 C75.19448286 192.63396229 69.92884566 202.92587664 62 212 C61.50242187 212.59167969 61.00484375 213.18335938 60.4921875 213.79296875 C44.15431739 231.73178594 15.42340138 240.47671637 -8 242 C-13.22639948 242.17685889 -18.45469681 242.1858273 -23.68359375 242.18530273 C-26.09914114 242.18747673 -28.51422121 242.20565392 -30.9296875 242.22460938 C-65.78781749 242.35220022 -108.50070937 233.28906644 -134.12866211 207.89038086 C-134.74620361 207.26655518 -135.36374512 206.64272949 -136 206 C-125.91024604 188.18030559 -115.62439427 170.50715403 -105 153 C-104.50806152 153.38236816 -104.01612305 153.76473633 -103.50927734 154.15869141 C-99.04135996 157.57859193 -94.54313379 160.64516371 -89.625 163.375 C-88.60623779 163.94190552 -88.60623779 163.94190552 -87.56689453 164.52026367 C-75.24127032 171.24983565 -62.67006729 176.6670154 -49 180 C-47.97777344 180.29777344 -46.95554687 180.59554688 -45.90234375 180.90234375 C-38.00824405 182.98377709 -30.38729056 183.31081922 -22.25 183.375 C-20.66964966 183.39578613 -20.66964966 183.39578613 -19.05737305 183.41699219 C-9.35078478 183.35897404 -1.03496439 182.03496439 6 175 C7.56471233 171.87057535 7.69701958 168.38917777 7 165 C-0.41947371 156.21587504 -13.90720538 154.99392281 -24.625 153.4375 C-27.28366633 153.02522848 -29.94054886 152.60187341 -32.59765625 152.1796875 C-33.87141113 151.97956055 -35.14516602 151.77943359 -36.45751953 151.57324219 C-61.67730781 147.4921903 -86.88484297 141.55944746 -107 125 C-107.64195312 124.48308594 -108.28390625 123.96617188 -108.9453125 123.43359375 C-116.87323986 116.34112062 -122.40139853 105.1990223 -125 95 C-125.30357422 94.05253906 -125.30357422 94.05253906 -125.61328125 93.0859375 C-130.73776364 75.02823767 -126.20456125 54.97487093 -117.375 39 C-103.73346742 17.39513621 -81.55906822 6.06746879 -57.2734375 0.47265625 C-38.52500094 -3.42521458 -18.83501176 -2.99989761 0 0 Z " fill="#242021" transform="translate(2471,901)"/>
<path d="M0 0 C2.0094872 0.48461459 4.02937199 0.92556469 6.04980469 1.36230469 C24.41436152 5.66711478 41.64689311 15.0223627 57.18261719 25.52636719 C56.56942342 29.85802442 55.00461641 33.10652055 52.93652344 36.94433594 C52.60941879 37.5552861 52.28231415 38.16623627 51.94529724 38.79570007 C50.88495464 40.77193462 49.81528931 42.74294097 48.74511719 44.71386719 C48.01616212 46.06730898 47.28764793 47.42098832 46.55957031 48.77490234 C41.19031567 58.74156162 35.74173879 68.66427165 30.18261719 78.52636719 C26.76472385 77.92899202 25.01861064 76.73436944 22.43261719 74.46386719 C3.77496585 59.54387343 -23.10962322 52.04327393 -46.81738281 54.52636719 C-53.83675085 55.91457892 -59.44684216 57.68271263 -64.81738281 62.52636719 C-67.16287955 66.0446123 -67.39729684 67.38412413 -66.81738281 71.52636719 C-61.68629309 78.421269 -53.32459742 79.8415282 -45.31738281 81.33886719 C-44.47916992 81.50354492 -43.64095703 81.66822266 -42.77734375 81.83789062 C-37.27622186 82.9077156 -31.76238361 83.88571678 -26.23925781 84.83496094 C-1.41552079 89.14908027 25.79608151 94.21696033 45.18261719 111.52636719 C45.93027344 112.16960937 46.67792969 112.81285156 47.44824219 113.47558594 C60.13992624 125.15279865 65.99282495 140.73126711 66.99511719 157.71386719 C67.77282913 177.10818501 63.11072639 194.05943207 50.49511719 209.21386719 C37.77984892 222.68281292 20.35533233 231.11225248 2.55761719 235.58886719 C0.68203125 236.07033203 0.68203125 236.07033203 -1.23144531 236.56152344 C-13.15062804 239.20796065 -24.75946495 239.87310012 -36.91967773 239.84204102 C-39.48432462 239.83889243 -42.04780016 239.86239659 -44.61230469 239.88769531 C-59.50501919 239.94502059 -74.12714216 238.21040891 -88.50488281 234.21386719 C-89.2819458 234.00221924 -90.05900879 233.79057129 -90.85961914 233.57250977 C-111.43435973 227.80755595 -131.71785322 218.83706016 -147.81738281 204.52636719 C-145.6244667 198.7515155 -142.58913327 193.52586546 -139.56738281 188.15136719 C-138.95491699 187.05896729 -138.34245117 185.96656738 -137.71142578 184.84106445 C-131.34986523 173.57185234 -124.63568937 162.52429253 -117.81738281 151.52636719 C-114.25868326 152.89475878 -111.48895181 154.35307829 -108.44238281 156.65136719 C-96.62290222 165.05400679 -83.51450423 170.90865883 -69.81738281 175.52636719 C-69.0482959 175.78611328 -68.27920898 176.04585937 -67.48681641 176.31347656 C-57.11795184 179.67261736 -47.21676309 180.97112333 -36.31738281 181.02636719 C-35.25583984 181.03273193 -34.19429687 181.03909668 -33.10058594 181.0456543 C-24.72542672 180.91029687 -15.93362451 180.07843704 -8.69238281 175.58886719 C-5.92981742 172.55004525 -4.96475119 170.68075279 -4.44238281 166.58886719 C-4.91760798 162.70786165 -6.16277807 161.3588607 -8.81738281 158.52636719 C-19.11032551 152.52825556 -32.02425639 151.39968908 -43.56738281 149.46386719 C-102.07023287 139.4706212 -102.07023287 139.4706212 -123.81738281 117.52636719 C-124.42324219 116.95402344 -125.02910156 116.38167969 -125.65332031 115.79199219 C-129.19879854 112.15271824 -131.36490114 107.81398965 -133.56738281 103.27636719 C-134.00884644 102.38256348 -134.00884644 102.38256348 -134.45922852 101.47070312 C-141.42294386 86.30429209 -141.57416285 64.35276335 -136.07983398 48.73217773 C-132.04246204 38.45859368 -125.48867209 30.32789907 -117.81738281 22.52636719 C-117.1303125 21.82640625 -116.44324219 21.12644531 -115.73535156 20.40527344 C-86.2272008 -7.67947859 -37.42624674 -9.0677545 0 0 Z " fill="#231F20" transform="translate(767.8173828125,903.4736328125)"/>
<path d="M0 0 C24.42 0 48.84 0 74 0 C74 21.12 74 42.24 74 64 C89.51 64 105.02 64 121 64 C121 85.12 121 106.24 121 128 C105.49 128 89.98 128 74 128 C74.06180188 143.92986171 74.06180188 143.92986171 74.16015625 159.859375 C74.20840551 166.36165593 74.25248249 172.86376848 74.27099609 179.36621094 C74.28620147 184.61190877 74.32071606 189.85716451 74.36830902 195.10266495 C74.38308281 197.0983609 74.3910387 199.09411999 74.39188385 201.08987045 C73.86657056 216.83225598 73.86657056 216.83225598 80.41143799 230.61764526 C85.65094905 235.36375838 90.52364509 236.38819591 97.3671875 236.265625 C100.79728189 235.91956206 103.7825933 234.97971068 106.9921875 233.75390625 C108.9759124 233.00904456 110.93716414 232.47639483 113 232 C117.74290873 245.47984585 121.18331747 259.35741646 124.38818359 273.27050781 C124.68329834 274.5442627 124.68329834 274.5442627 124.984375 275.84375 C125.15678711 276.59849609 125.32919922 277.35324219 125.50683594 278.13085938 C125.95099052 280.07217598 125.95099052 280.07217598 127 282 C127.625 284.75 127.625 284.75 127 288 C111.94753405 302.71879059 87.67619953 302.56073985 68.109375 302.41943359 C48.87630357 302.14848402 31.33890343 298.03325423 17.11328125 284.25 C8.24477653 274.80774729 3.6440211 264.63056025 1 252 C0.82555642 251.22361836 0.65111284 250.44723673 0.47138309 249.64732838 C-0.00096474 246.99458196 -0.12309715 244.57299996 -0.12025452 241.88102722 C-0.12162918 240.87286957 -0.12300385 239.86471191 -0.12442017 238.82600403 C-0.11902725 237.18386177 -0.11902725 237.18386177 -0.11352539 235.50854492 C-0.11367142 234.34713989 -0.11381744 233.18573486 -0.1139679 231.98913574 C-0.11327161 228.15289437 -0.10549243 224.31670164 -0.09765625 220.48046875 C-0.09579106 217.81960467 -0.09431844 215.15874328 -0.09336853 212.49787903 C-0.09026339 206.21170298 -0.08206102 199.92554437 -0.07201904 193.63937598 C-0.06083253 186.48099479 -0.05534106 179.32261275 -0.05032361 172.16422498 C-0.03987772 157.44280652 -0.02154239 142.72140678 0 128 C-12.87 128 -25.74 128 -39 128 C-39 106.88 -39 85.76 -39 64 C-26.13 64 -13.26 64 0 64 C0 42.88 0 21.76 0 0 Z " fill="#231F20" transform="translate(888,841)"/>
<path d="M0 0 C16.17532565 13.72885837 25.70605559 31.81170368 31.5 51.9375 C31.768125 52.81664062 32.03625 53.69578125 32.3125 54.6015625 C38.33087656 78.25712593 31.34698274 104.93136586 19.55859375 125.57421875 C16.58764369 130.42808593 13.32804581 134.73213785 9.5 138.9375 C8.67757812 139.84113281 7.85515625 140.74476563 7.0078125 141.67578125 C-10.83009727 160.36680844 -34.58012065 171.08176897 -60.40234375 172.08984375 C-64.10871398 172.12370906 -67.79572808 172.05860923 -71.5 171.9375 C-72.82837891 171.92783203 -72.82837891 171.92783203 -74.18359375 171.91796875 C-94.13304263 171.07766435 -113.93130929 161.19030897 -128.5 147.9375 C-129.94632813 146.63039063 -129.94632813 146.63039063 -131.421875 145.296875 C-150.23292314 127.71530713 -160.82980816 104.34266797 -161.73828125 78.625 C-162.30600543 49.50304106 -152.74484155 25.12035254 -132.5 3.9375 C-95.76216105 -31.72881865 -38.95532329 -31.73170689 0 0 Z " fill="#008FD5" transform="translate(953.5,202.0625)"/>
<path d="M0 0 C0.93392578 -0.00386719 1.86785156 -0.00773438 2.83007812 -0.01171875 C12.17415434 0.00125013 20.87168385 0.57670744 29.75 3.625 C30.89674194 4.01594849 30.89674194 4.01594849 32.06665039 4.41479492 C45.18654054 9.08613834 56.93931362 15.63653722 67.1875 25.125 C68.02539062 25.87136719 68.86328125 26.61773437 69.7265625 27.38671875 C87.37130399 43.91159275 98.23217466 68.01089679 99.51171875 92.08203125 C100.38479065 119.61974611 91.35805349 144.59357549 72.45898438 164.82861328 C53.89080943 184.07626659 29.29354518 194.66411694 2.52832031 195.46875 C-15.81775624 195.70125473 -31.98342168 191.30431579 -47.8125 182.125 C-48.79347656 181.58101562 -49.77445313 181.03703125 -50.78515625 180.4765625 C-71.7902692 168.08505702 -86.16985365 147.34778792 -92.8125 124.125 C-93.06354492 123.2887207 -93.31458984 122.45244141 -93.57324219 121.59082031 C-95.81859776 113.52148656 -96.35537853 105.91631006 -96.3125 97.5625 C-96.30605469 96.24491699 -96.29960938 94.92733398 -96.29296875 93.56982422 C-95.82378469 68.36044113 -85.36390575 46.08402048 -68.0625 27.875 C-49.37395667 10.14558875 -25.85605929 -0.10575075 0 0 Z " fill="#FBB040" transform="translate(1360.8125,178.875)"/>
<path d="M0 0 C1.65020142 0.00845947 1.65020142 0.00845947 3.33374023 0.01708984 C29.88883886 0.41311272 54.19244651 12.43701029 72.6875 31.3125 C92.85872704 54.12964417 99.12275479 80.3685527 97.6875 110.3125 C96.3302994 128.23363061 87.37505736 145.2081359 76.6875 159.3125 C75.73617187 160.56933594 75.73617187 160.56933594 74.765625 161.8515625 C59.48011875 180.33787988 35.87898566 191.75078382 12.375 195.0625 C10.81468355 195.17981703 9.25121173 195.25631874 7.6875 195.3125 C6.37265625 195.3640625 5.0578125 195.415625 3.703125 195.46875 C-21.48459029 196.13555628 -44.67024251 188.54183374 -63.6875 171.75 C-65.23690939 170.27894573 -66.7791062 168.8002411 -68.3125 167.3125 C-69.33923828 166.39597656 -69.33923828 166.39597656 -70.38671875 165.4609375 C-85.88228755 151.15265197 -96.36885179 126.88539189 -97.42919922 106.015625 C-98.45516152 79.39164816 -92.14205313 53.77386961 -73.6875 33.8125 C-71.91634561 31.95736585 -70.1180932 30.13463298 -68.3125 28.3125 C-67.68472656 27.63574219 -67.05695312 26.95898438 -66.41015625 26.26171875 C-49.66551971 8.49270445 -23.89753629 -0.12892698 0 0 Z " fill="#7F3E98" transform="translate(2307.3125,178.6875)"/>
<path d="M0 0 C15.97180271 13.89091044 27.6325427 31.78079144 32.1875 52.625 C32.49494141 53.88376953 32.49494141 53.88376953 32.80859375 55.16796875 C38.04317603 80.185662 33.00480963 105.69067833 19.9375 127.4375 C18.72710286 129.19461585 17.4732834 130.92227324 16.1875 132.625 C15.78611816 133.15899414 15.38473633 133.69298828 14.97119141 134.24316406 C-0.4486795 154.39058464 -22.9015957 168.0652503 -48.125 171.9375 C-75.29047728 174.8865706 -101.85428468 169.62972478 -123.625 152.25 C-143.855445 134.72496369 -158.51475939 111.82528071 -160.8125 84.625 C-162.15181988 65.22618848 -159.1718287 46.81843347 -149.8125 29.625 C-149.30074219 28.6246875 -148.78898437 27.624375 -148.26171875 26.59375 C-143.86339428 18.44792712 -138.21843546 12.19396077 -131.8125 5.625 C-131.24015625 4.97917969 -130.6678125 4.33335937 -130.078125 3.66796875 C-97.17711196 -32.54010488 -35.55734624 -29.85067594 0 0 Z " fill="#ED1B24" transform="translate(479.8125,201.375)"/>
<path d="M0 0 C17.45765473 15.27917816 28.14734776 37.14445411 31 60 C31.25544833 64.17210501 31.28114652 68.32117579 31.25 72.5 C31.25773437 73.53769531 31.26546875 74.57539063 31.2734375 75.64453125 C31.21909092 97.46468301 23.32820271 118.49341957 9 135 C8.34644531 135.79664063 7.69289063 136.59328125 7.01953125 137.4140625 C-3.07531971 149.29252101 -14.95638378 156.66060872 -29 163 C-30.15757812 163.53496094 -31.31515625 164.06992187 -32.5078125 164.62109375 C-36.17046012 166.06730696 -39.63315008 166.8979683 -43.5 167.625 C-44.7478125 167.86476563 -45.995625 168.10453125 -47.28125 168.3515625 C-73.29553392 172.88766663 -98.68974862 168.65188514 -120.77539062 153.80664062 C-137.42163578 142.05525094 -148.69290622 127.4361089 -157 109 C-157.40089844 108.11054688 -157.80179688 107.22109375 -158.21484375 106.3046875 C-167.09419516 84.39111835 -165.96555583 58.26097832 -157.50390625 36.4375 C-152.69686784 25.44998364 -147.15319558 15.90307143 -139 7 C-138.22914062 6.14792969 -137.45828125 5.29585937 -136.6640625 4.41796875 C-123.42077032 -9.53248952 -106.66656856 -18.65029609 -88 -23 C-87.08476563 -23.22558594 -86.16953125 -23.45117188 -85.2265625 -23.68359375 C-54.08355983 -30.15312869 -23.89040553 -19.88278224 0 0 Z " fill="#0BA14A" transform="translate(1901,204)"/>
<path d="M0 0 C24.42 0 48.84 0 74 0 C74.04416052 30.81181254 74.081062 61.62359433 74.10213066 92.43542868 C74.10463182 96.07999938 74.10722049 99.72457002 74.10986328 103.36914062 C74.1103879 104.09465366 74.11091252 104.8201667 74.11145304 105.56766498 C74.12013571 117.28714542 74.1358938 129.00660608 74.15430559 140.72607481 C74.17306433 152.76756298 74.18412931 164.80904084 74.18817699 176.85054302 C74.19066562 183.60721864 74.19660873 190.36385315 74.21146011 197.12051392 C74.22511013 203.48980079 74.22920771 209.85902478 74.22621536 216.22832489 C74.22676222 218.5565907 74.23069517 220.88485878 74.23841095 223.21311188 C74.28953612 239.44671771 74.27073458 255.33386148 68.75 270.8125 C68.440625 271.70485352 68.13125 272.59720703 67.8125 273.51660156 C64.12203873 283.87333661 59.20535961 292.67579573 52 301 C51.05060547 302.10988281 51.05060547 302.10988281 50.08203125 303.2421875 C36.15741662 318.34242626 14.9040075 326.04279264 -5.30688477 327.18725586 C-8.76984004 327.26725648 -12.22375936 327.27795073 -15.6875 327.25 C-16.91557373 327.24250732 -18.14364746 327.23501465 -19.40893555 327.22729492 C-37.50427705 327.01404414 -53.77256306 324.83430858 -69.875 315.9375 C-70.47658936 315.60927246 -71.07817871 315.28104492 -71.69799805 314.94287109 C-75.73522496 312.57734074 -75.73522496 312.57734074 -76.78857422 310.28051758 C-77.09233202 307.0040723 -76.1118469 304.6401917 -75.015625 301.546875 C-74.69123444 300.61829681 -74.69123444 300.61829681 -74.36029053 299.67095947 C-73.66677294 297.6936476 -72.95857501 295.72195944 -72.25 293.75 C-71.7881053 292.43913897 -71.32715798 291.12794371 -70.8671875 289.81640625 C-68.65031153 283.51664469 -66.35997359 277.24739366 -64 271 C-63.09305325 268.50382797 -62.20271912 266.00223751 -61.3125 263.5 C-60.87550781 262.2728125 -60.43851563 261.045625 -59.98828125 259.78125 C-59.66214844 258.8634375 -59.33601563 257.945625 -59 257 C-55.77335935 258.20164548 -53.06465574 259.5273353 -50.25 261.5 C-41.22470163 267.1763936 -29.26794847 267.59284435 -19.0234375 265.34765625 C-13.1926697 263.29543737 -9.13817816 260.36146426 -6 255 C-2.14954999 246.37053487 -0.85177828 238.68085761 -0.84178162 229.32536316 C-0.83684364 228.34512202 -0.83190566 227.36488088 -0.82681805 226.35493547 C-0.81144978 223.06759865 -0.8030842 219.78028136 -0.79467773 216.49291992 C-0.78509869 214.1375308 -0.77508859 211.78214341 -0.76467896 209.42675781 C-0.73762673 203.0285086 -0.71661884 196.63025202 -0.69667697 190.23197722 C-0.67750028 184.22398075 -0.65288524 178.21600487 -0.62875474 172.20802668 C-0.58111031 160.30902588 -0.53783761 148.41001336 -0.49731445 136.51098633 C-0.4579435 124.95303435 -0.41651344 113.39509277 -0.37231445 101.8371582 C-0.36959018 101.12457988 -0.36686591 100.41200155 -0.36405908 99.67782994 C-0.35037934 96.10298996 -0.33665912 92.52815013 -0.32291877 88.95331037 C-0.20900346 59.302228 -0.10298863 29.65112276 0 0 Z " fill="#231F20" transform="translate(227,905)"/>
<path d="M0 0 C24.42 0 48.84 0 74 0 C74 106.26 74 212.52 74 322 C49.58 322 25.16 322 0 322 C0 215.74 0 109.48 0 0 Z " fill="#231F20" transform="translate(1169,816)"/>
<path d="M0 0 C24.42 0 48.84 0 74 0 C74 76.89 74 153.78 74 233 C49.58 233 25.16 233 0 233 C0 156.11 0 79.22 0 0 Z " fill="#231F20" transform="translate(1297,905)"/>
<path d="M0 0 C9.22723239 7.05523775 16.52305753 16.11576545 18.6875 27.8125 C19.63423836 42.26846652 16.63052855 53.6781446 7.5 65 C-0.84971405 74.03205628 -13.0717213 78.77500491 -25.25 79.375 C-36.20317058 78.94035037 -46.55185867 74.526763 -54.3125 66.8125 C-65.07658938 54.91196294 -66.93809175 44.59516214 -66.43994141 29.04248047 C-65.81637774 18.13131096 -59.69134873 9.75756698 -51.9375 2.4375 C-47.7175072 -1.12222182 -43.4970475 -3.35652598 -38.3125 -5.1875 C-36.70375 -5.80625 -36.70375 -5.80625 -35.0625 -6.4375 C-22.67836271 -8.91432746 -10.6103142 -6.97620047 0 0 Z " fill="#242021" transform="translate(1358.3125,806.1875)"/>
<path d="M0 0 C2.03054411 1.42536234 3.77547478 2.92039683 5.5546875 4.6484375 C6.24046875 5.30714844 6.92625 5.96585938 7.6328125 6.64453125 C16.94431263 16.31814527 19.96570636 26.78268269 19.828125 39.94921875 C18.95879708 51.70998364 13.24948237 61.43146041 4.8046875 69.4609375 C-4.41173597 76.99034704 -15.62652929 80.31037106 -27.41113281 79.31811523 C-39.35332538 77.99568567 -48.30214273 73.57160438 -56.4453125 64.6484375 C-62.84466254 55.9855619 -66.02247662 47.02207579 -65.8828125 36.2734375 C-65.87451416 35.44344238 -65.86621582 34.61344727 -65.85766602 33.75830078 C-65.52747257 21.72327845 -61.06950244 13.50697379 -52.7890625 4.93359375 C-37.85982981 -8.90411485 -17.34073435 -9.58449534 0 0 Z " fill="#242021" transform="translate(287.4453125,805.3515625)"/>
<path d="M0 0 C8.38672963 5.92779319 14.44880667 15.23522754 16.375 25.375 C17.12770141 37.54849786 15.95487193 47.87429853 9.4609375 58.40234375 C8.32770353 60.46091625 7.6182728 62.03290308 7.375 64.375 C9.72926499 67.14622275 9.72926499 67.14622275 12.375 69.375 C11.08200306 72.25937779 9.71558637 74.24719421 7.375 76.375 C3.55815774 74.81999019 1.18304268 72.33904505 -1.625 69.375 C-2.3778125 69.7359375 -3.130625 70.096875 -3.90625 70.46875 C-14.924312 75.28246641 -25.63626913 76.71220568 -37.125 72.25 C-48.26941225 66.843903 -54.82848783 60.09775118 -59 48.3125 C-62.24027529 36.65840065 -62.03933413 24.34741165 -56.625 13.375 C-51.4544974 4.90584764 -44.0717877 -1.47223681 -34.73046875 -4.93359375 C-22.65744179 -7.6215507 -10.58123159 -6.35933785 0 0 Z " fill="#FCFCFC" transform="translate(1450.625,1344.625)"/>
<path d="M0 0 C8.31024992 5.9111169 13.33849763 13.69132005 15.9296875 23.61328125 C17.71442402 35.90610934 16.85262502 48.14519021 9.5625 58.5625 C8.51155027 59.81946717 7.42737335 61.04936716 6.3125 62.25 C5.74917969 62.86617187 5.18585938 63.48234375 4.60546875 64.1171875 C-2.88392942 71.46468129 -12.38665705 74.70721254 -22.75 74.875 C-32.98588997 74.7089598 -41.55487569 71.21611706 -48.94140625 64.13671875 C-58.49193968 53.81701484 -61.09861194 44.23605685 -60.9609375 30.20703125 C-60.17886302 18.88929623 -56.08674193 10.18360063 -47.80859375 2.5078125 C-34.07105477 -8.64873431 -14.8862775 -9.18724057 0 0 Z " fill="#FCFCFC" transform="translate(524.6875,1344.75)"/>
<path d="M0 0 C8.59456021 5.86586904 14.73920981 14.48640032 16.8046875 24.71484375 C18.07499751 38.16193621 16.60995207 51.41605737 7.7578125 62.2109375 C-0.45144971 70.83066282 -9.23939812 74.66704308 -21.1328125 74.96484375 C-32.32975615 74.67018734 -41.15619012 71.71108079 -49.4453125 64.02734375 C-58.72912323 54.18872362 -60.71734964 42.52966503 -60.5078125 29.43359375 C-59.63421145 19.03774125 -54.51916816 9.4172464 -46.8203125 2.40234375 C-33.60421496 -8.14709109 -14.36067478 -8.40687189 0 0 Z " fill="#FCFCFC" transform="translate(2275.1953125,1344.28515625)"/>
<path d="M0 0 C6.55875 -0.103125 13.1175 -0.20625 19.875 -0.3125 C21.92444824 -0.35802002 23.97389648 -0.40354004 26.08544922 -0.45043945 C36.32842249 -0.58329661 44.60537038 -0.49652263 52.73657227 6.49267578 C56.38902816 10.12907551 56.45616096 14.480938 56.6875 19.4375 C56.49235636 25.41007804 55.63940326 29.07916748 51.703125 33.58203125 C49.9008998 35.08250773 48.13659147 36.04782337 46 37 C46.92232422 37.76183594 46.92232422 37.76183594 47.86328125 38.5390625 C57.50469286 46.75040827 57.50469286 46.75040827 58.26953125 53.3125 C58.53555777 59.77595908 57.8109801 65.64053597 53.55859375 70.72265625 C39.70944906 83.80061887 15.96657215 78 0 78 C0 52.26 0 26.52 0 0 Z " fill="#282425" transform="translate(1231,1340)"/>
<path d="M0 0 C42.75757576 0 42.75757576 0 51 8 C55.89663562 14.99519374 55.81932394 22.68572406 55 31 C53.84418741 34.21335829 52.29916332 36.49457928 50 39 C49.54238281 39.50144531 49.08476563 40.00289062 48.61328125 40.51953125 C45.89410253 43.10461349 43.37786332 44.31666428 39.80078125 45.1328125 C38.54652344 45.41898438 37.29226563 45.70515625 36 46 C36.60585938 46.89831543 37.21171875 47.79663086 37.8359375 48.72216797 C40.07691535 52.0475063 42.31183502 55.37687808 44.54492188 58.70751953 C45.51331756 60.15003914 46.48336525 61.59145112 47.45507812 63.03173828 C48.84938665 65.09901408 50.23775682 67.17016609 51.625 69.2421875 C52.06247559 69.88807831 52.49995117 70.53396912 52.95068359 71.19943237 C56 75.77225659 56 75.77225659 56 78 C51.61453097 79.23987083 48.34807725 79.48126849 44 78 C38.68503556 72.49539845 35.39272776 64.76351448 31.98828125 57.98583984 C30.04419618 54.16841963 28.23172675 50.846243 25 48 C19.55186858 46.64908578 15.79675485 46.79297304 10 47 C10 56.9 10 66.8 10 77 C6.7 77 3.4 77 0 77 C0 51.59 0 26.18 0 0 Z " fill="#292627" transform="translate(764,1340)"/>
<path d="M0 0 C4.62 0 9.24 0 14 0 C17.48944554 6.69420438 20.36579529 13.56389364 23.1875 20.5625 C23.66292236 21.73530518 24.13834473 22.90811035 24.62817383 24.11645508 C29.17880088 35.37438649 33.61547772 46.67646606 38 58 C39.66298206 53.91631564 41.3250485 49.83226004 42.98620605 45.74783325 C43.57732933 44.29440149 44.16855605 42.84101179 44.7598877 41.38766479 C49.23047987 30.39753572 53.66088586 19.39258765 58.01513672 8.35571289 C58.39686035 7.3939917 58.77858398 6.43227051 59.171875 5.44140625 C59.5028418 4.60295166 59.83380859 3.76449707 60.17480469 2.90063477 C61 1 61 1 62 0 C66.62 0 71.24 0 76 0 C76 25.74 76 51.48 76 78 C72.7 78 69.4 78 66 78 C65.67 57.87 65.34 37.74 65 17 C62.89625 22.259375 60.7925 27.51875 58.625 32.9375 C56.5300293 38.1496582 56.5300293 38.1496582 55.63594055 40.37382507 C53.0368188 46.84606602 50.47773005 53.32835752 48.01953125 59.85546875 C47.57851074 61.00990479 47.13749023 62.16434082 46.68310547 63.35375977 C45.86767746 65.4952572 45.06786726 67.64278274 44.28564453 69.79663086 C43.92196777 70.7428833 43.55829102 71.68913574 43.18359375 72.6640625 C42.87993896 73.48342285 42.57628418 74.3027832 42.26342773 75.14697266 C41 77 41 77 38.36352539 77.77099609 C37.58356201 77.84656738 36.80359863 77.92213867 36 78 C27.5665933 57.7064683 19.25450255 37.36708782 11 17 C10.67 37.13 10.34 57.26 10 78 C6.7 78 3.4 78 0 78 C0 52.26 0 26.52 0 0 Z " fill="#272324" transform="translate(280,1340)"/>
<path d="M0 0 C3.63 0 7.26 0 11 0 C13.75585857 8.43693015 16.02524669 16.92634465 18.13891602 25.54174805 C19.91513664 32.75119453 21.91541375 39.8732094 24 47 C24.59048583 49.01875497 25.17429984 51.03947888 25.75 53.0625 C25.99234375 53.89910156 26.2346875 54.73570313 26.484375 55.59765625 C27.02837451 58.13219941 27.09213712 60.41555379 27 63 C27.66 63 28.32 63 29 63 C29.09023438 61.7934375 29.18046875 60.586875 29.2734375 59.34375 C29.9975915 52.8743045 31.84042788 46.74392154 33.625 40.5 C34.16330162 38.58414229 34.70160071 36.66828386 35.23968506 34.75236511 C35.79042428 32.79594371 36.34444889 30.84048041 36.89941406 28.88525391 C38.30210029 23.9405761 39.68214534 18.98960506 41.06396484 14.0390625 C42.37129081 9.35805809 43.68505998 4.67887037 45 0 C47.97 0 50.94 0 54 0 C60.06610368 19.8870432 65.73434845 39.8858652 71 60 C73.08545653 55.3851695 74.64408481 50.99771526 75.83203125 46.0546875 C75.98931198 45.41028717 76.14659271 44.76588684 76.30863953 44.10195923 C76.64275516 42.73221771 76.97439753 41.3618708 77.30371094 39.9909668 C78.16356769 36.41496945 79.0435116 32.84396194 79.92578125 29.2734375 C80.10041901 28.56616516 80.27505676 27.85889282 80.45498657 27.13018799 C82.72090013 18.01612442 85.32401749 9.00103209 88 0 C91.63 0 95.26 0 99 0 C98.22733009 5.65368227 96.6818464 11.02418011 95.125 16.5 C94.82762939 17.55501709 94.53025879 18.61003418 94.22387695 19.69702148 C92.22955178 26.74463303 90.1989975 33.78157117 88.16015625 40.81640625 C87.79280365 42.0839827 87.79280365 42.0839827 87.41802979 43.37716675 C86.19276814 47.60261726 84.96483741 51.82726921 83.73291016 56.05078125 C83.50099472 56.84790024 83.26907928 57.64501923 83.03013611 58.46629333 C82.5962936 59.95743011 82.16129922 61.4482325 81.72486877 62.93861389 C80.3699086 67.60103652 79.153591 72.2835863 78 77 C74.04 77 70.08 77 66 77 C60.41230434 57.39441847 55.01153175 37.76213204 50 18 C47.90068192 24.19531071 46.10557675 30.46051758 44.3125 36.75 C43.96380859 37.97106445 43.61511719 39.19212891 43.25585938 40.45019531 C39.70794865 52.93204038 36.33310508 65.45919215 33 78 C29.37 78 25.74 78 22 78 C18.1853063 66.40221329 14.80198869 54.74129035 11.68847656 42.93603516 C9.43856121 34.46715489 6.9629272 26.08625662 4.30883789 17.73535156 C2.46821023 11.86574021 1.11557569 6.05131789 0 0 Z " fill="#2A2627" transform="translate(560,1340)"/>
<path d="M0 0 C41.11428571 0 41.11428571 0 49 6 C53.70454485 10.97337599 56.13220956 16.08491955 56.4375 22.875 C56.20712358 30.08249073 53.1848247 36.95919821 48 42 C42.32126648 45.39802513 37.46190291 47.12892912 30.80078125 47.09765625 C29.71192627 47.09515869 28.62307129 47.09266113 27.5012207 47.09008789 C26.11894287 47.08098389 24.73666504 47.07187988 23.3125 47.0625 C18.919375 47.041875 14.52625 47.02125 10 47 C10 57.23 10 67.46 10 78 C6.7 78 3.4 78 0 78 C0 52.26 0 26.52 0 0 Z " fill="#292627" transform="translate(2056,1340)"/>
<path d="M0 0 C38 0 38 0 48 5 C54.3538017 12.35703354 55.54750409 17.56537636 55.34765625 27.25390625 C54.87465091 32.35067164 53.36205805 35.24678838 50 39 C49.2575 39.928125 48.515 40.85625 47.75 41.8125 C40.27709698 47.75685468 31.58865919 47.38346001 22.4375 47.1875 C18.333125 47.125625 14.22875 47.06375 10 47 C10 57.23 10 67.46 10 78 C6.7 78 3.4 78 0 78 C0 52.26 0 26.52 0 0 Z " fill="#282425" transform="translate(388,1340)"/>
<path d="M0 0 C40.54285714 0 40.54285714 0 48.25 5.1875 C53.83908916 10.90361392 55.26643526 15.45023974 55.5625 23.5 C55.31640866 32.03682373 53.0606585 35.9393415 47.1875 41.8125 C39.12617225 47.34478375 32.01033724 47.389708 22.5 47.1875 C18.375 47.125625 14.25 47.06375 10 47 C10 57.23 10 67.46 10 78 C6.7 78 3.4 78 0 78 C0 52.26 0 26.52 0 0 Z " fill="#282425" transform="translate(2321,1340)"/>
<path d="M0 0 C9.44837018 7.23966027 14.40732556 15.72627892 16.10546875 27.61328125 C-15.24453125 27.61328125 -46.59453125 27.61328125 -78.89453125 27.61328125 C-77.40250286 15.67705414 -73.25953593 8.22781777 -63.89453125 0.61328125 C-45.92907811 -11.89154784 -18.32713307 -12.37158229 0 0 Z " fill="#FDFDFD" transform="translate(1823.89453125,967.38671875)"/>
<path d="M0 0 C8.38672963 5.92779319 14.44880667 15.23522754 16.375 25.375 C17.12770141 37.54849786 15.95487193 47.87429853 9.4609375 58.40234375 C8.32770353 60.46091625 7.6182728 62.03290308 7.375 64.375 C9.72926499 67.14622275 9.72926499 67.14622275 12.375 69.375 C11.08200306 72.25937779 9.71558637 74.24719421 7.375 76.375 C3.55815774 74.81999019 1.18304268 72.33904505 -1.625 69.375 C-2.3778125 69.7359375 -3.130625 70.096875 -3.90625 70.46875 C-14.924312 75.28246641 -25.63626913 76.71220568 -37.125 72.25 C-48.26941225 66.843903 -54.82848783 60.09775118 -59 48.3125 C-62.24027529 36.65840065 -62.03933413 24.34741165 -56.625 13.375 C-51.4544974 4.90584764 -44.0717877 -1.47223681 -34.73046875 -4.93359375 C-22.65744179 -7.6215507 -10.58123159 -6.35933785 0 0 Z M-38.625 7.375 C-39.24632812 7.87257813 -39.86765625 8.37015625 -40.5078125 8.8828125 C-46.80796256 14.5503115 -50.21674915 22.06104631 -50.86328125 30.4765625 C-51.08179457 40.85019489 -49.32004904 49.19216229 -42.625 57.375 C-35.25948011 64.07971833 -28.37881345 65.78083159 -18.515625 65.64453125 C-14.65057787 65.28414172 -12.01410517 64.22360282 -8.625 62.375 C-10.06924635 59.13638697 -11.88272247 56.75530837 -14.25 54.125 C-14.88164063 53.41859375 -15.51328125 52.7121875 -16.1640625 51.984375 C-16.64617187 51.45328125 -17.12828125 50.9221875 -17.625 50.375 C-15.645 47.9 -15.645 47.9 -13.625 45.375 C-9.54444849 45.88047372 -7.96227705 47.87588882 -5.375 50.9375 C-4.66859375 51.76378906 -3.9621875 52.59007812 -3.234375 53.44140625 C-2.70328125 54.07949219 -2.1721875 54.71757813 -1.625 55.375 C3.96340582 50.40883264 5.82962807 43.7919133 6.73046875 36.49609375 C7.0359488 26.26978557 4.29383117 17.94356913 -2.625 10.375 C-8.56754737 4.87814368 -14.05954674 2.82602116 -22 2.9375 C-22.75587402 2.94579834 -23.51174805 2.95409668 -24.29052734 2.96264648 C-29.86728603 3.13220602 -34.18193154 3.78227957 -38.625 7.375 Z " fill="#282425" transform="translate(1450.625,1344.625)"/>
<path d="M0 0 C11 0 11 0 14.86328125 3.70703125 C16.04955236 5.38359417 17.19759428 7.08765578 18.3125 8.8125 C19.59877195 10.661588 20.88523476 12.51054325 22.171875 14.359375 C22.80931641 15.30361328 23.44675781 16.24785156 24.10351562 17.22070312 C26.97254357 21.4252621 30.01925701 25.48209796 33.0625 29.5625 C35.351875 32.676875 37.64125 35.79125 40 39 C44.62 45.27 49.24 51.54 54 58 C54.33 38.86 54.66 19.72 55 0 C58.3 0 61.6 0 65 0 C65 25.74 65 51.48 65 78 C55 78 55 78 51.671875 74.73046875 C50.66449408 73.23817106 49.69227091 71.72174061 48.75 70.1875 C47.6411032 68.52225062 46.53036527 66.85822608 45.41796875 65.1953125 C44.8564209 64.33325195 44.29487305 63.47119141 43.71630859 62.58300781 C40.98035994 58.46546346 38.02042873 54.521981 35.0625 50.5625 C33.90027476 48.98884736 32.73882209 47.41462386 31.578125 45.83984375 C29.09225107 42.47510465 26.60160273 39.11394109 24.109375 35.75390625 C23.47378662 34.89531006 22.83819824 34.03671387 22.18334961 33.15209961 C20.96734757 31.50955268 19.74951151 29.86836136 18.52954102 28.22875977 C17.97967529 27.48553467 17.42980957 26.74230957 16.86328125 25.9765625 C16.38157471 25.32768066 15.89986816 24.67879883 15.40356445 24.01025391 C13.82380865 21.7476501 12.41976634 19.36627723 11 17 C10.67 36.8 10.34 56.6 10 77 C6.7 77 3.4 77 0 77 C0 51.59 0 26.18 0 0 Z " fill="#2A2627" transform="translate(1819,1340)"/>
<path d="M0 0 C1.0725 0.639375 2.145 1.27875 3.25 1.9375 C6.12660262 4.09495196 8.60228362 6.32019934 11 9 C11 9.66 11 10.32 11 11 C9.03852126 12.38938077 7.03833424 13.7260411 5 15 C2.56450657 13.91755848 0.78419039 12.81416395 -1.25 11.0625 C-8.85356219 5.35982836 -16.77104718 5.10620502 -26 6 C-34.21231131 7.69209711 -39.34204194 12.15268996 -44 19 C-48.33976722 26.43751352 -48.11104534 36.66200667 -47 45 C-44.10701168 54.58376788 -37.57602436 60.33521687 -29 65 C-21.04853148 67.65048951 -12.65872086 66.48554156 -5.12109375 63.16796875 C-4.42113281 62.78253906 -3.72117187 62.39710937 -3 62 C-2.26394531 61.62875 -1.52789063 61.2575 -0.76953125 60.875 C1.98555305 57.95570538 1.67549926 54.62458114 1.75 50.8125 C1.8325 48.234375 1.915 45.65625 2 43 C-6.91 43 -15.82 43 -25 43 C-25 40.03 -25 37.06 -25 34 C-12.79 34 -0.58 34 12 34 C12.165 38.640625 12.33 43.28125 12.5 48.0625 C12.57283203 49.51277588 12.64566406 50.96305176 12.72070312 52.45727539 C12.88040983 61.72992374 12.88040983 61.72992374 10.32641602 65.41430664 C8.29572775 67.22394516 6.35127031 68.63954707 4 70 C3.27941406 70.41967041 2.55882812 70.83934082 1.81640625 71.27172852 C-7.94312308 76.67776718 -19.38431297 77.63458648 -30.203125 75.3125 C-40.54243651 71.84680899 -49.23112163 64.84630877 -54.51171875 55.25390625 C-56.71976912 50.59106062 -58.67524588 46.19606593 -59 41 C-59.05027344 40.20207031 -59.10054687 39.40414063 -59.15234375 38.58203125 C-59.57813626 26.50655558 -56.16858081 15.72619264 -47.92578125 6.73828125 C-36.01928103 -4.50328353 -14.49682122 -9.416462 0 0 Z " fill="#2A2627" transform="translate(1190,1343)"/>
<path d="M0 0 C44.84772727 0 44.84772727 0 56.3125 10.6875 C65.46625298 20.43420863 66.5413543 30.92750653 66.33984375 43.6640625 C65.94337088 53.06425334 62.38228914 60.58186156 55.86328125 67.32421875 C40.22958626 81.38471172 19.96716019 78 0 78 C0 52.26 0 26.52 0 0 Z M10 9 C10 28.8 10 48.6 10 69 C31.70776967 70.11225441 31.70776967 70.11225441 49.23828125 60.08984375 C55.49660761 52.66588676 56.71822827 45.04319213 56.3515625 35.51953125 C55.55124217 27.50743549 52.92939477 20.64645684 47 15 C34.29148717 7.0225379 27.29400795 9 10 9 Z " fill="#292627" transform="translate(928,1340)"/>
<path d="M0 0 C3.51564202 2.82906927 6.80316552 5.81676907 10 9 C9 12 9 12 6.6875 13.8125 C4 15 4 15 2 14.4375 C0 13 0 13 -2.25 11.0625 C-9.89285471 5.33035897 -17.73315957 5.22957181 -27 6 C-33.59687335 7.19259437 -38.66790765 10.98437922 -43 16 C-48.76366788 24.35941176 -48.92504791 33.25141821 -48 43 C-47.39615872 46.27733703 -46.51301337 49.03547787 -45 52 C-44.68289063 52.62132812 -44.36578125 53.24265625 -44.0390625 53.8828125 C-40.27131921 60.05549832 -33.74290286 63.75236571 -27 66 C-16.83452513 67.06933757 -9.63576044 65.45973646 -1 60 C1.04238092 57.95761908 0.41508455 53.76319246 0.5625 50.9375 C0.706875 48.318125 0.85125 45.69875 1 43 C-7.91 43 -16.82 43 -26 43 C-26 35 -26 35 -25 34 C-22.3337397 33.91144839 -19.69352886 33.88475327 -17.02734375 33.90234375 C-16.22970108 33.9037587 -15.43205841 33.90517365 -14.61024475 33.90663147 C-12.05262565 33.91224684 -9.49509282 33.92480188 -6.9375 33.9375 C-5.20768355 33.94251302 -3.47786574 33.94707627 -1.74804688 33.95117188 C2.50133553 33.96222125 6.75065312 33.97949614 11 34 C11.19912394 38.00124233 11.34353456 42.00053573 11.43945312 46.00561523 C11.47946385 47.36485056 11.53389777 48.72374629 11.60351562 50.08178711 C12.16181208 61.26003162 12.16181208 61.26003162 9.40112305 65.39453125 C5.68685256 68.7705766 1.49661268 71.08055789 -3.1875 72.875 C-4.17105469 73.26429687 -5.15460938 73.65359375 -6.16796875 74.0546875 C-16.06815139 77.35930019 -26.88999413 77.30419601 -36.5390625 73.2578125 C-46.42516103 68.2049177 -54.11390841 60.1519682 -58.1171875 49.74609375 C-60.48060683 39.71724801 -61.10165319 26.44973959 -56.32421875 17.0625 C-49.96979554 7.16534527 -42.54423528 -0.55364366 -30.8359375 -3.5546875 C-20.84443495 -5.12360112 -8.70569682 -5.73853026 0 0 Z " fill="#2A2627" transform="translate(1972,1343)"/>
<path d="M0 0 C8.59456021 5.86586904 14.73920981 14.48640032 16.8046875 24.71484375 C18.07499751 38.16193621 16.60995207 51.41605737 7.7578125 62.2109375 C-0.45144971 70.83066282 -9.23939812 74.66704308 -21.1328125 74.96484375 C-32.32975615 74.67018734 -41.15619012 71.71108079 -49.4453125 64.02734375 C-58.72912323 54.18872362 -60.71734964 42.52966503 -60.5078125 29.43359375 C-59.63421145 19.03774125 -54.51916816 9.4172464 -46.8203125 2.40234375 C-33.60421496 -8.14709109 -14.36067478 -8.40687189 0 0 Z M-43.65625 12.71875 C-49.56128518 20.37731086 -50.91860063 29.2987038 -50.1953125 38.71484375 C-48.77810444 47.2541228 -45.77031178 55.00010074 -38.91015625 60.5703125 C-31.16799461 65.87023128 -24.54602355 66.71842884 -15.1953125 65.71484375 C-7.79599381 63.31968857 -1.16573556 59.56448089 2.8046875 52.71484375 C8.04225049 42.15736615 7.82963898 32.56478541 4.7109375 21.375 C2.11608455 13.75821182 -3.39995272 8.64919378 -10.4296875 5.06640625 C-14.27633139 3.4958166 -18.00923879 3.21463343 -22.1328125 3.27734375 C-22.83720459 3.28564209 -23.54159668 3.29394043 -24.26733398 3.30249023 C-32.80775434 3.58047681 -37.88961677 6.59663938 -43.65625 12.71875 Z " fill="#282425" transform="translate(2275.1953125,1344.28515625)"/>
<path d="M0 0 C8.06338263 6.51448427 13.64151682 15.46659459 15.0168457 25.81591797 C15.17144962 28.27809144 15.21843686 30.70889717 15.19921875 33.17578125 C15.19277344 34.04759033 15.18632813 34.91939941 15.1796875 35.81762695 C14.87238013 46.76241948 11.58865195 55.6488009 3.8671875 63.55859375 C0.41587355 66.53107676 -3.14211516 68.59740219 -7.30078125 70.42578125 C-7.9865625 70.74417969 -8.67234375 71.06257813 -9.37890625 71.390625 C-18.31075165 74.97990361 -28.9782298 74.63231 -37.9921875 71.46484375 C-47.89729265 67.00670844 -54.49279428 60.04175519 -59.30078125 50.42578125 C-61.3048539 44.7224347 -61.6359812 39.57080726 -61.61328125 33.55078125 C-61.62939453 32.70386719 -61.64550781 31.85695313 -61.66210938 30.984375 C-61.67058959 19.90922012 -57.56031359 10.8511659 -50.11328125 2.73828125 C-36.76930879 -10.02170992 -14.75996308 -10.0989221 0 0 Z M-45.30078125 11.42578125 C-51.72572763 20.83907478 -52.69256843 31.26841554 -51.30078125 42.42578125 C-48.38303845 52.16953487 -42.61855261 58.19341042 -34.11328125 63.36328125 C-26.14479055 65.58400817 -17.78160668 65.67020061 -10.359375 61.734375 C-2.19838606 56.54664958 2.36063971 50.9966325 4.69921875 41.42578125 C6.09168969 30.49270865 4.97354409 20.6740297 -1.55078125 11.61328125 C-5.59355682 6.71579625 -9.96334376 3.6329122 -16.30078125 2.42578125 C-27.96569914 1.6787668 -37.23317653 2.33745769 -45.30078125 11.42578125 Z " fill="#282425" transform="translate(1680.30078125,1345.57421875)"/>
<path d="M0 0 C8.31024992 5.9111169 13.33849763 13.69132005 15.9296875 23.61328125 C17.71442402 35.90610934 16.85262502 48.14519021 9.5625 58.5625 C8.51155027 59.81946717 7.42737335 61.04936716 6.3125 62.25 C5.74917969 62.86617187 5.18585938 63.48234375 4.60546875 64.1171875 C-2.88392942 71.46468129 -12.38665705 74.70721254 -22.75 74.875 C-32.98588997 74.7089598 -41.55487569 71.21611706 -48.94140625 64.13671875 C-58.49193968 53.81701484 -61.09861194 44.23605685 -60.9609375 30.20703125 C-60.17886302 18.88929623 -56.08674193 10.18360063 -47.80859375 2.5078125 C-34.07105477 -8.64873431 -14.8862775 -9.18724057 0 0 Z M-38.6875 7.25 C-39.29851562 7.71277344 -39.90953125 8.17554688 -40.5390625 8.65234375 C-46.96788873 14.2467904 -50.14025239 21.63199826 -51.1328125 30.0078125 C-51.45945443 40.78699629 -49.12507302 49.04173391 -42.40234375 57.4921875 C-36.96125187 63.06961654 -30.94786049 65.40430112 -23.25 65.6875 C-14.80205751 65.60887385 -8.0095369 63.24962689 -1.75 57.45703125 C4.4492679 49.94041892 7.0148864 40.79257064 6.62890625 31.16796875 C5.57734906 21.47027465 1.91961264 14.62085046 -5.125 7.9375 C-10.85358845 4.16501492 -15.77732406 2.70836219 -22.625 2.8125 C-23.32939209 2.82079834 -24.03378418 2.82909668 -24.75952148 2.83764648 C-30.32153038 3.0186872 -34.31125362 3.80858559 -38.6875 7.25 Z " fill="#282425" transform="translate(524.6875,1344.75)"/>
<path d="M0 0 C16.83 0 33.66 0 51 0 C51 2.97 51 5.94 51 9 C37.47 9 23.94 9 10 9 C10 16.92 10 24.84 10 33 C12.87589844 32.98839844 15.75179687 32.97679687 18.71484375 32.96484375 C21.48819875 32.95705375 24.26155254 32.95097667 27.03491211 32.94506836 C28.96818585 32.94002744 30.90145576 32.93319481 32.8347168 32.92456055 C35.60726872 32.91248435 38.37977041 32.90676943 41.15234375 32.90234375 C42.45702858 32.89460182 42.45702858 32.89460182 43.78807068 32.88670349 C45.85905814 32.88650815 47.92994324 32.93791832 50 33 C51 34 51 34 51 42 C37.47 42 23.94 42 10 42 C10 50.91 10 59.82 10 69 C23.53 69 37.06 69 51 69 C51 71.97 51 74.94 51 78 C34.17 78 17.34 78 0 78 C0 52.26 0 26.52 0 0 Z " fill="#2C2829" transform="translate(848,1340)"/>
<path d="M0 0 C16.83 0 33.66 0 51 0 C51 2.97 51 5.94 51 9 C37.47 9 23.94 9 10 9 C10 16.92 10 24.84 10 33 C23.2 33 36.4 33 50 33 C50 35.97 50 38.94 50 42 C36.8 42 23.6 42 10 42 C10 50.91 10 59.82 10 69 C23.53 69 37.06 69 51 69 C51 71.97 51 74.94 51 78 C34.17 78 17.34 78 0 78 C0 52.26 0 26.52 0 0 Z " fill="#2A2728" transform="translate(2474,1340)"/>
<path d="M0 0 C16.83 0 33.66 0 51 0 C51 2.97 51 5.94 51 9 C37.47 9 23.94 9 10 9 C10 16.92 10 24.84 10 33 C23.2 33 36.4 33 50 33 C50 35.97 50 38.94 50 42 C36.8 42 23.6 42 10 42 C10 50.91 10 59.82 10 69 C23.53 69 37.06 69 51 69 C51 71.97 51 74.94 51 78 C34.17 78 17.34 78 0 78 C0 52.26 0 26.52 0 0 Z " fill="#2B2829" transform="translate(2138,1340)"/>
<path d="M0 0 C16.83 0 33.66 0 51 0 C51 2.97 51 5.94 51 9 C37.47 9 23.94 9 10 9 C10 16.92 10 24.84 10 33 C23.2 33 36.4 33 50 33 C50 35.97 50 38.94 50 42 C36.8 42 23.6 42 10 42 C10 50.91 10 59.82 10 69 C23.53 69 37.06 69 51 69 C51 71.97 51 74.94 51 78 C34.17 78 17.34 78 0 78 C0 52.26 0 26.52 0 0 Z " fill="#2B2729" transform="translate(200,1340)"/>
<path d="M0 0 C16.83 0 33.66 0 51 0 C51 2.97 51 5.94 51 9 C37.47 9 23.94 9 10 9 C10 16.92 10 24.84 10 33 C23.2 33 36.4 33 50 33 C50 35.97 50 38.94 50 42 C36.47 42 22.94 42 9 42 C9 50.91 9 59.82 9 69 C22.86 69 36.72 69 51 69 C51 71.64 51 74.28 51 77 C34.17 77 17.34 77 0 77 C0 51.59 0 26.18 0 0 Z " fill="#282425" transform="translate(684,1340)"/>
<path d="M0 0 C3.3 0 6.6 0 10 0 C10.01401855 2.33759399 10.01401855 2.33759399 10.02832031 4.72241211 C10.06834211 10.53177958 10.13413589 16.34062428 10.20751953 22.1496582 C10.23565837 24.65870422 10.25690795 27.16783771 10.27099609 29.67700195 C10.29252298 33.29423581 10.3392264 36.91042568 10.390625 40.52734375 C10.39185364 41.64020248 10.39308228 42.75306122 10.39434814 43.89964294 C10.54890448 52.21130854 12.07197964 58.47136008 17.4375 64.9375 C23.45906284 69.78412375 29.57991624 69.47448155 37 69 C41.90523704 68.00078505 45.77677717 65.86722404 49 62 C53.02040632 54.74758503 53.60015349 47.79805817 53.609375 39.6484375 C53.62591125 38.50839264 53.64244751 37.36834778 53.65948486 36.1937561 C53.70768985 32.58744776 53.72927541 28.98156027 53.75 25.375 C53.77818255 22.91534372 53.80811314 20.45570681 53.83984375 17.99609375 C53.91344191 11.99743051 53.96318465 5.99899717 54 0 C57.3 0 60.6 0 64 0 C64.07449699 7.36488669 64.12876647 14.72955102 64.16479492 22.09472656 C64.17982434 24.59704411 64.2002535 27.09933557 64.22631836 29.6015625 C64.26295878 33.21100325 64.27978546 36.82009383 64.29296875 40.4296875 C64.30845261 41.53738495 64.32393646 42.6450824 64.33988953 43.78634644 C64.34213997 54.31730723 62.26892977 64.02152178 55 72 C45.90747139 78.79041299 36.06097433 79.77685773 25 79 C17.36489358 77.75366576 10.57617906 74.56044853 5.72265625 68.37109375 C0.45053783 59.79644077 -0.42782315 51.19138174 -0.29296875 41.30859375 C-0.28872391 40.12274185 -0.28447906 38.93688995 -0.28010559 37.71510315 C-0.26341433 33.95566374 -0.22577888 30.19677533 -0.1875 26.4375 C-0.17244086 23.87696091 -0.15875462 21.31641335 -0.14648438 18.75585938 C-0.11354195 12.5036964 -0.06182507 6.25194138 0 0 Z " fill="#282526" transform="translate(1724,1340)"/>
<path d="M0 0 C1.67995895 -0.24606994 3.37068611 -0.41904875 5.0625 -0.5625 C6.00222656 -0.66691406 6.94195313 -0.77132813 7.91015625 -0.87890625 C13.04373765 0.5813413 15.09169529 4.72419176 18 9 C19.01694946 10.46433472 19.01694946 10.46433472 20.05444336 11.95825195 C22.21150236 15.0992326 24.32882072 18.26387015 26.4375 21.4375 C27.16904297 22.52482422 27.90058594 23.61214844 28.65429688 24.73242188 C29.34458984 25.76818359 30.03488281 26.80394531 30.74609375 27.87109375 C31.37185303 28.80880615 31.9976123 29.74651855 32.64233398 30.71264648 C34 33 34 33 34 35 C34.66 35 35.32 35 36 35 C36.28593018 34.41299316 36.57186035 33.82598633 36.86645508 33.22119141 C38.60551354 29.81349082 40.65665231 26.61474864 42.6875 23.375 C43.13230713 22.6636792 43.57711426 21.9523584 44.03540039 21.21948242 C47.06018214 16.41394283 50.19985478 11.7161714 53.52734375 7.11328125 C55.10602562 4.97165065 55.10602562 4.97165065 56.3046875 2.25 C58 0 58 0 60.91796875 -0.48828125 C61.99691406 -0.43027344 63.07585937 -0.37226562 64.1875 -0.3125 C65.27417969 -0.26738281 66.36085938 -0.22226563 67.48046875 -0.17578125 C68.72763672 -0.08876953 68.72763672 -0.08876953 70 0 C67.02740538 5.74018271 63.66406374 11.06311831 60 16.375 C59.53634033 17.06609863 59.07268066 17.75719727 58.5949707 18.46923828 C56.05847575 22.20896952 53.44187209 25.69145137 50.4296875 29.0625 C38.00580742 43.71791113 39.25726169 59.71026696 40 78 C36.7 78 33.4 78 30 78 C30.04825928 77.08524902 30.09651855 76.17049805 30.14624023 75.22802734 C31.00702982 54.59237686 29.97935062 40.93178222 16.11914062 24.6015625 C12.40687665 20.04420249 9.27101749 15.10561372 6.0625 10.1875 C5.1494812 8.82371216 5.1494812 8.82371216 4.21801758 7.43237305 C0 1.13012975 0 1.13012975 0 0 Z " fill="#292526" transform="translate(1532,1340)"/>
<path d="M0 0 C19.47 0 38.94 0 59 0 C59 2.97 59 5.94 59 9 C50.75 9 42.5 9 34 9 C34 31.77 34 54.54 34 78 C30.7 78 27.4 78 24 78 C24 55.23 24 32.46 24 9 C16.08 9 8.16 9 0 9 C0 6.03 0 3.06 0 0 Z " fill="#292526" transform="translate(1311,1340)"/>
<path d="M0 0 C3.63 0 7.26 0 11 0 C11 22.77 11 45.54 11 69 C22.55 69 34.1 69 46 69 C46 71.97 46 74.94 46 78 C39.60962203 78.024644 33.21927148 78.04283317 26.82885742 78.05493164 C24.65307127 78.05997308 22.47728853 78.06680607 20.30151367 78.07543945 C17.18146933 78.08751338 14.06146962 78.09323005 10.94140625 78.09765625 C9.47266808 78.10539818 9.47266808 78.10539818 7.97425842 78.11329651 C7.07340012 78.11337204 6.17254181 78.11344757 5.24438477 78.11352539 C4.04858543 78.11685631 4.04858543 78.11685631 2.82862854 78.12025452 C1 78 1 78 0 77 C-0.09496708 74.59651714 -0.12558862 72.22189018 -0.11352539 69.81811523 C-0.11367142 69.06694427 -0.11381744 68.31577332 -0.1139679 67.5418396 C-0.11326863 65.04739541 -0.10547564 62.55302497 -0.09765625 60.05859375 C-0.09579212 58.33366436 -0.09436819 56.60873443 -0.09336853 54.88380432 C-0.08954297 50.33487497 -0.07971238 45.78597733 -0.06866455 41.23706055 C-0.05845124 36.59879994 -0.05387108 31.96053423 -0.04882812 27.32226562 C-0.03809014 18.21482978 -0.02101327 9.10741752 0 0 Z " fill="#343132" transform="translate(2401,1340)"/>
<path d="M0 0 C3.3 0 6.6 0 10 0 C10 22.77 10 45.54 10 69 C21.88 69 33.76 69 46 69 C46 71.97 46 74.94 46 78 C30.82 78 15.64 78 0 78 C0 52.26 0 26.52 0 0 Z " fill="#272425" transform="translate(1066,1340)"/>
<path d="M0 0 C4.54230412 -0.10800723 9.08203539 -0.18733842 13.625 -0.25 C15.55279297 -0.30027344 15.55279297 -0.30027344 17.51953125 -0.3515625 C29.24163065 -0.47303503 29.24163065 -0.47303503 34 4 C34.598125 4.515625 35.19625 5.03125 35.8125 5.5625 C38.32478246 8.60368403 38.34036234 12.12837656 38.27734375 15.9375 C37.8083752 19.42504073 36.29403799 21.4041149 34 24 C29.60350142 26.65764367 26.39694192 27.36326067 21.2890625 27.29296875 C20.04511719 27.28330078 18.80117187 27.27363281 17.51953125 27.26367188 C16.23433594 27.23853516 14.94914062 27.21339844 13.625 27.1875 C11.66240234 27.16719727 11.66240234 27.16719727 9.66015625 27.14648438 C6.43992699 27.11122639 3.21991029 27.05742244 0 27 C0 18.09 0 9.18 0 0 Z " fill="#F9F9F9" transform="translate(1241,1382)"/>
<path d="M0 0 C6.001875 -0.0928125 6.001875 -0.0928125 12.125 -0.1875 C13.37555176 -0.21481201 14.62610352 -0.24212402 15.91455078 -0.27026367 C26.2291648 -0.34753603 26.2291648 -0.34753603 31 3 C34.46987891 6.65250412 35.30013186 9.5965683 35.5 14.5 C35.30013186 19.4034317 34.46987891 22.34749588 31 26 C25.18112032 30.08291391 18.9245164 29.33600123 12.125 29.1875 C8.12375 29.125625 4.1225 29.06375 0 29 C0 19.43 0 9.86 0 0 Z " fill="#FDFDFD" transform="translate(2066,1349)"/>
<path d="M0 0 C3.980625 -0.0825 7.96125 -0.165 12.0625 -0.25 C13.30394775 -0.28641602 14.54539551 -0.32283203 15.82446289 -0.36035156 C22.47209193 -0.42691911 26.63248214 -0.03309328 32 4 C35.59935421 7.83157061 35.62350428 12.22242032 35.48046875 17.26953125 C34.71224269 21.63530374 32.59572883 24.46227368 29 27 C23.27968904 29.72438861 17.31277688 29.22330153 11.125 29.125 C7.45375 29.08375 3.7825 29.0425 0 29 C0 19.43 0 9.86 0 0 Z " fill="#FDFDFD" transform="translate(398,1349)"/>
<path d="M0 0 C4.16625 -0.0825 8.3325 -0.165 12.625 -0.25 C13.92775879 -0.28641602 15.23051758 -0.32283203 16.57275391 -0.36035156 C27.20069311 -0.46236925 27.20069311 -0.46236925 32 4 C35.18553347 7.71645572 35.46577042 11.06168291 35.28515625 15.7890625 C34.68776635 20.42088009 32.87592984 23.1897649 29.5 26.3125 C25.71307075 28.86867724 22.91836777 29.12126121 18.45703125 29.09765625 C17.00647339 29.09390991 17.00647339 29.09390991 15.52661133 29.09008789 C14.30095459 29.08098389 13.07529785 29.07187988 11.8125 29.0625 C5.9653125 29.0315625 5.9653125 29.0315625 0 29 C0 19.43 0 9.86 0 0 Z " fill="#FDFDFD" transform="translate(2331,1349)"/>
<path d="M0 0 C3.980625 -0.0825 7.96125 -0.165 12.0625 -0.25 C13.30394775 -0.28641602 14.54539551 -0.32283203 15.82446289 -0.36035156 C22.46865699 -0.42688472 26.64038997 -0.04203923 32 4 C35.23751645 7.65526051 35.46502095 11.08129938 35.28515625 15.7890625 C34.68776635 20.42088009 32.87592984 23.1897649 29.5 26.3125 C25.71307075 28.86867724 22.91836777 29.12126121 18.45703125 29.09765625 C17.00647339 29.09390991 17.00647339 29.09390991 15.52661133 29.09008789 C14.30095459 29.08098389 13.07529785 29.07187988 11.8125 29.0625 C5.9653125 29.0315625 5.9653125 29.0315625 0 29 C0 19.43 0 9.86 0 0 Z " fill="#FDFDFD" transform="translate(774,1349)"/>
<path d="M0 0 C4.56285508 -0.08089106 9.12427754 -0.14045647 13.6875 -0.1875 C14.98107422 -0.21263672 16.27464844 -0.23777344 17.60742188 -0.26367188 C18.85458984 -0.27333984 20.10175781 -0.28300781 21.38671875 -0.29296875 C22.53358154 -0.3086792 23.68044434 -0.32438965 24.86206055 -0.34057617 C29.20883291 0.13120065 31.80705657 1.73903787 34.78125 4.8828125 C36.99564285 8.72961034 36.74264132 12.71293421 36 17 C34.31181551 20.12001504 32.21905059 22.39047471 29 24 C26.82175039 24.08559118 24.64084745 24.10713412 22.4609375 24.09765625 C21.15898438 24.09443359 19.85703125 24.09121094 18.515625 24.08789062 C17.13541601 24.07953466 15.75520768 24.07106971 14.375 24.0625 C12.98698074 24.05748501 11.59895978 24.0529221 10.2109375 24.04882812 C6.80727327 24.03700985 3.4036313 24.0190739 0 24 C0 16.08 0 8.16 0 0 Z " fill="#FDFDFD" transform="translate(1241,1349)"/>
</svg>
